# xmcd
#
# Track frame offsets: 
#        150
#        18967
#        37520
#        55897
#        84170
#        98540
#        117857
#        138415
#        150475
#        170977
#        186677
#        201895
#        219877
#
# Disc length: 3139 seconds
#
# Revision: 2
# Processed by: cddbd v1.5.2PL0 Copyright (c) Steve Scherf et al.
# Submitted via: ExactAudioCopy v1.0b2
#
DISCID=a20c410d
DTITLE=Jackie Payne - Day In The Life (of a Bluesman)
DYEAR=1997
DGENRE=Blues
TTITLE0=Main Squeeze
TTITLE1=You Wrote the Book
TTITLE2=Take the Keys
TTITLE3=Day In The Life (of a Bluesman)
TTITLE4=Talk To Me Baby
TTITLE5=25 Miles From Nowhere
TTITLE6=I'm Still Cool
TTITLE7=Hit The Ground Runnin'
TTITLE8=Fallin' Rain
TTITLE9=Stand Back Baby
TTITLE10=Come To Me Baby
TTITLE11=Goin' Out Ridin'
TTITLE12=The Both Of You
EXTD=
EXTT0=
EXTT1=
EXTT2=
EXTT3=
EXTT4=
EXTT5=
EXTT6=
EXTT7=
EXTT8=
EXTT9=
EXTT10=
EXTT11=
EXTT12=
PLAYORDER=
